<svg xmlns="http://www.w3.org/2000/svg" viewBox="0 0 1920 1200" role="img" aria-label="InasOS light wallpaper">
  <defs>
    <linearGradient id="sky" x1="0" y1="0" x2="1" y2="1">
      <stop offset="0" stop-color="#dbeafe"/>
      <stop offset="0.48" stop-color="#f8fafc"/>
      <stop offset="1" stop-color="#fff7ed"/>
    </linearGradient>
    <radialGradient id="sun" cx="0.78" cy="0.14" r="0.46">
      <stop offset="0" stop-color="#f59e0b" stop-opacity="0.38"/>
      <stop offset="0.38" stop-color="#fb923c" stop-opacity="0.16"/>
      <stop offset="1" stop-color="#ffffff" stop-opacity="0"/>
    </radialGradient>
    <radialGradient id="sea" cx="0.12" cy="0.76" r="0.62">
      <stop offset="0" stop-color="#0891b2" stop-opacity="0.26"/>
      <stop offset="0.48" stop-color="#38bdf8" stop-opacity="0.10"/>
      <stop offset="1" stop-color="#ffffff" stop-opacity="0"/>
    </radialGradient>
    <filter id="grain" x="-20%" y="-20%" width="140%" height="140%">
      <feTurbulence type="fractalNoise" baseFrequency="0.66" numOctaves="3" seed="9"/>
      <feColorMatrix type="saturate" values="0"/>
      <feComponentTransfer>
        <feFuncA type="table" tableValues="0 0.08"/>
      </feComponentTransfer>
    </filter>
    <linearGradient id="ridge" x1="0" y1="0" x2="0" y2="1">
      <stop offset="0" stop-color="#cbd5e1" stop-opacity="0.86"/>
      <stop offset="1" stop-color="#94a3b8" stop-opacity="0.92"/>
    </linearGradient>
  </defs>
  <rect width="1920" height="1200" fill="url(#sky)"/>
  <rect width="1920" height="1200" fill="url(#sun)"/>
  <rect width="1920" height="1200" fill="url(#sea)"/>
  <path d="M-120 310C116 235 284 272 474 218C660 165 798 188 982 258C1156 324 1328 306 1516 228C1690 156 1800 154 2040 102V512C1816 563 1642 594 1458 660C1248 735 1038 691 832 626C628 562 456 590 258 654C120 699 34 710-120 716Z" fill="#bfdbfe" opacity="0.42"/>
  <path d="M-90 238C124 172 300 214 466 168C656 115 788 135 970 206C1138 272 1338 263 1516 190C1684 122 1794 124 2010 74" fill="none" stroke="#f97316" stroke-width="86" stroke-linecap="round" opacity="0.18"/>
  <path d="M-120 398C126 322 312 363 520 306C724 250 872 284 1058 358C1248 434 1436 414 1636 322C1796 249 1890 252 2040 214" fill="none" stroke="#0ea5e9" stroke-width="104" stroke-linecap="round" opacity="0.2"/>
  <path d="M0 596C182 530 368 554 546 494C740 429 910 460 1098 526C1288 594 1458 580 1662 492C1802 432 1878 425 1920 410V710C1728 774 1550 776 1368 842C1150 922 944 874 742 814C552 758 390 789 204 850C106 882 44 894 0 902Z" fill="#ffffff" opacity="0.28"/>
  <path d="M0 856C168 797 320 820 486 742C640 669 748 676 912 734C1044 781 1184 784 1328 700C1490 606 1660 618 1920 502V1200H0Z" fill="#dbeafe" opacity="0.74"/>
  <path d="M0 956C142 908 310 917 468 865C648 806 798 767 964 828C1126 888 1292 929 1456 847C1626 762 1768 768 1920 716V1200H0Z" fill="url(#ridge)"/>
  <path d="M0 1028C156 962 342 1020 532 960C714 903 858 924 1020 983C1198 1048 1386 1054 1568 970C1712 904 1810 894 1920 868V1200H0Z" fill="#64748b" opacity="0.42"/>
  <rect width="1920" height="1200" filter="url(#grain)" opacity="0.3"/>
</svg>
