<svg xmlns="http://www.w3.org/2000/svg" viewBox="0 0 1920 1080" preserveAspectRatio="xMidYMid slice" role="img" aria-label="InasOS dark wallpaper">
  <defs>
    <linearGradient id="sky" x1="0" y1="0" x2="0" y2="1">
      <stop offset="0" stop-color="#070b1c"/>
      <stop offset="0.45" stop-color="#0e1a3a"/>
      <stop offset="1" stop-color="#16264f"/>
    </linearGradient>
    <radialGradient id="sunGlow" cx="0.57" cy="0.4" r="0.55">
      <stop offset="0" stop-color="#fdba74" stop-opacity="0.9"/>
      <stop offset="0.22" stop-color="#f97316" stop-opacity="0.5"/>
      <stop offset="0.55" stop-color="#f97316" stop-opacity="0.14"/>
      <stop offset="1" stop-color="#f97316" stop-opacity="0"/>
    </radialGradient>
    <radialGradient id="coolGlow" cx="0.1" cy="0.92" r="0.6">
      <stop offset="0" stop-color="#38bdf8" stop-opacity="0.42"/>
      <stop offset="1" stop-color="#38bdf8" stop-opacity="0"/>
    </radialGradient>
    <radialGradient id="purpleGlow" cx="0.93" cy="0.05" r="0.42">
      <stop offset="0" stop-color="#a855f7" stop-opacity="0.45"/>
      <stop offset="1" stop-color="#a855f7" stop-opacity="0"/>
    </radialGradient>
    <radialGradient id="sunDisc" cx="0.42" cy="0.36" r="0.72">
      <stop offset="0" stop-color="#ffe7c4"/>
      <stop offset="0.5" stop-color="#fb923c"/>
      <stop offset="1" stop-color="#ea580c"/>
    </radialGradient>
    <linearGradient id="m1" x1="0" y1="0" x2="0" y2="1">
      <stop offset="0" stop-color="#2b416f"/>
      <stop offset="1" stop-color="#1d2f57"/>
    </linearGradient>
    <linearGradient id="m2" x1="0" y1="0" x2="0" y2="1">
      <stop offset="0" stop-color="#1a2b47"/>
      <stop offset="1" stop-color="#131f3e"/>
    </linearGradient>
    <linearGradient id="m3" x1="0" y1="0" x2="0" y2="1">
      <stop offset="0" stop-color="#0d1530"/>
      <stop offset="1" stop-color="#080d22"/>
    </linearGradient>
  </defs>

  <rect width="1920" height="1080" fill="url(#sky)"/>
  <rect width="1920" height="1080" fill="url(#purpleGlow)"/>
  <rect width="1920" height="1080" fill="url(#coolGlow)"/>
  <rect width="1920" height="1080" fill="url(#sunGlow)"/>

  <g fill="#ffffff">
    <circle cx="120" cy="80" r="1.7" opacity="0.8"/>
    <circle cx="260" cy="150" r="1.2" opacity="0.5"/>
    <circle cx="400" cy="60" r="2" opacity="0.9"/>
    <circle cx="540" cy="190" r="1.3" opacity="0.6"/>
    <circle cx="690" cy="95" r="1.5" opacity="0.7"/>
    <circle cx="150" cy="270" r="1.4" opacity="0.65"/>
    <circle cx="330" cy="310" r="1" opacity="0.45"/>
    <circle cx="480" cy="360" r="1.6" opacity="0.7"/>
    <circle cx="620" cy="290" r="1.2" opacity="0.55"/>
    <circle cx="80" cy="410" r="1.4" opacity="0.6"/>
    <circle cx="240" cy="450" r="1" opacity="0.4"/>
    <circle cx="60" cy="180" r="1.3" opacity="0.6"/>
    <circle cx="820" cy="210" r="1.1" opacity="0.5"/>
    <circle cx="900" cy="120" r="1.8" opacity="0.85"/>
    <circle cx="1410" cy="90" r="1.5" opacity="0.7"/>
    <circle cx="1520" cy="210" r="1.2" opacity="0.55"/>
    <circle cx="1640" cy="110" r="2" opacity="0.9"/>
    <circle cx="1760" cy="250" r="1.3" opacity="0.6"/>
    <circle cx="1850" cy="150" r="1.4" opacity="0.65"/>
    <circle cx="1470" cy="340" r="1.1" opacity="0.5"/>
    <circle cx="1600" cy="410" r="1.5" opacity="0.7"/>
    <circle cx="1720" cy="350" r="1.2" opacity="0.55"/>
    <circle cx="1840" cy="430" r="1.3" opacity="0.6"/>
    <circle cx="1880" cy="300" r="1.6" opacity="0.75"/>
    <circle cx="1330" cy="170" r="1.5" opacity="0.7"/>
    <circle cx="1280" cy="470" r="1.2" opacity="0.5"/>
  </g>

  <ellipse cx="1090" cy="560" rx="560" ry="96" fill="#f97316" opacity="0.26"/>
  <circle cx="1090" cy="450" r="266" fill="#f97316" opacity="0.1"/>
  <circle cx="1090" cy="450" r="172" fill="#fb923c" opacity="0.2"/>
  <circle cx="1090" cy="450" r="100" fill="url(#sunDisc)"/>

  <path d="M0 1080V650L240 552L470 624L700 540L940 612L1180 530L1410 606L1650 548L1920 596V1080Z" fill="url(#m1)"/>
  <path d="M0 650L240 552L470 624L700 540L940 612L1180 530L1410 606L1650 548L1920 596" fill="none" stroke="#fb923c" stroke-width="2.5" opacity="0.5"/>
  <path d="M0 1080V792L260 706L500 772L740 690L1000 766L1260 700L1500 776L1740 708L1920 760V1080Z" fill="url(#m2)"/>
  <path d="M0 1080V930L300 856L560 922L820 850L1100 928L1380 858L1660 930L1920 872V1080Z" fill="url(#m3)"/>

  <g fill="#fdba74">
    <circle cx="588" cy="900" r="1.4" opacity="0.85"/>
    <circle cx="606" cy="894" r="1.1" opacity="0.7"/>
    <circle cx="624" cy="903" r="1.3" opacity="0.8"/>
    <circle cx="643" cy="897" r="1" opacity="0.6"/>
    <circle cx="662" cy="906" r="1.2" opacity="0.75"/>
    <circle cx="1322" cy="905" r="1.3" opacity="0.8"/>
    <circle cx="1340" cy="899" r="1" opacity="0.6"/>
    <circle cx="1358" cy="908" r="1.2" opacity="0.75"/>
    <circle cx="1376" cy="902" r="1.1" opacity="0.65"/>
  </g>

  <rect width="1920" height="1080" fill="#070b1c" opacity="0.12"/>
</svg>
